<svg xmlns="http://www.w3.org/2000/svg" width="640" height="480" viewBox="0 0 640 480"><rect width="640" height="480" rx="16" fill="#e5f1f7"/><g fill="none" stroke="#afcddc" stroke-width="1.5"><path d="M-40 110Q120 10 280 120T700 100M-40 140Q120 40 280 150T700 130M-40 170Q120 70 280 180T700 160M-40 320Q120 220 280 330T700 310M-40 350Q120 250 280 360T700 340M-40 380Q120 280 280 390T700 370"/></g><path d="M350-20C270 70 430 150 300 235S180 365 265 500" fill="none" stroke="#fff" stroke-width="55"/><path d="M350-20C270 70 430 150 300 235S180 365 265 500" fill="none" stroke="#268db8" stroke-width="28"/><path d="M105 110Q170 175 314 224M530 285Q385 275 260 310" fill="none" stroke="#268db8" stroke-width="12"/><g fill="#003b65"><circle cx="314" cy="224" r="8"/><circle cx="260" cy="310" r="8"/></g></svg>
